<svg width="24" height="24" viewBox="0 0 24 24" fill="none" xmlns="http://www.w3.org/2000/svg">
<path fill-rule="evenodd" clip-rule="evenodd" d="M12.8505 21.6734C12.6152 21.8841 12.3132 22 12 22C11.687 22 11.3848 21.8841 11.1497 21.6738C10.2589 20.8778 9.40073 20.1304 8.6434 19.4711L8.64308 19.4708C6.42714 17.5411 4.51347 15.8747 3.18184 14.2327C1.69321 12.3974 1 10.6571 1 8.75591C1 6.90876 1.61969 5.20464 2.7451 3.95726C3.88394 2.69513 5.44676 2 7.14571 2C8.41563 2 9.57864 2.41025 10.6023 3.21926C11.1191 3.62762 11.5873 4.1274 12 4.71036C12.4126 4.1274 12.8809 3.62762 13.3975 3.21926C14.4212 2.41025 15.5842 2 16.8541 2C18.5532 2 20.1159 2.69513 21.2547 3.95726C22.3801 5.20464 23 6.90876 23 8.75591C23 10.6571 22.3066 12.3974 20.818 14.2329C19.4863 15.8747 17.5723 17.5415 15.3559 19.4714L15.3521 19.4749C14.5961 20.1331 13.7392 20.8794 12.8505 21.6734ZM19.6988 5.41238C18.8721 4.50156 17.7356 4 16.4985 4C15.5924 4 14.7604 4.29265 14.0257 4.86974C13.3709 5.38426 12.9148 6.03467 12.6476 6.48976C12.5101 6.72379 12.268 6.86348 12 6.86348C11.732 6.86348 11.4899 6.72379 11.3524 6.48976C11.0851 6.03467 10.629 5.38426 9.97427 4.86974C9.2396 4.29265 8.40756 4 7.50132 4C6.26438 4 5.12778 4.50156 4.30118 5.41238C3.46214 6.33696 3 7.61502 3 9.01129C3 10.4845 3.53898 11.8021 4.7473 13.2834C5.91427 14.7139 7.64938 16.2162 9.65849 17.9557L9.66394 17.9604C10.3686 18.5702 11.167 19.2616 12.0017 20C12.8314 19.263 13.6286 18.5728 14.3319 17.9639L14.3356 17.9608L14.3368 17.9597C16.3478 16.2186 18.0847 14.7149 19.2525 13.2834C20.461 11.8021 21 10.4845 21 9.01129C21 7.61502 20.5379 6.33696 19.6988 5.41238Z" fill="white"/>
</svg>
