<svg width="98" height="86" viewBox="0 0 98 86" fill="none" xmlns="http://www.w3.org/2000/svg">
<path d="M0 84.4C0 85.28 0.71129 86 1.58065 86H96.4194C97.2887 86 98 85.28 98 84.4V6H0V84.4Z" fill="#EEEEEF"/>
<path d="M98 3V6H0V3C0 1.3365 1.40677 0 3.16129 0H94.8387C96.5932 0 98 1.3365 98 3Z" fill="#888892"/>
<path d="M4.5648 1.66333H4.54924C3.69058 1.66333 3.00146 2.40833 3.00146 3.33C3.00146 4.25 3.70613 4.99666 4.5648 4.99666C5.42502 4.99666 6.12035 4.25 6.12035 3.33C6.12035 2.40833 5.42502 1.66333 4.5648 1.66333Z" fill="#E6E9ED"/>
<path d="M9.22984 1.66333H9.21428C8.35406 1.66333 7.6665 2.40833 7.6665 3.33C7.6665 4.25 8.36962 4.99666 9.22984 4.99666C10.0901 4.99666 10.7854 4.25 10.7854 3.33C10.7854 2.40833 10.0901 1.66333 9.22984 1.66333Z" fill="#E6E9ED"/>
<path d="M13.9012 1.66333H13.8857C13.027 1.66333 12.3379 2.40833 12.3379 3.33C12.3379 4.25 13.0426 4.99666 13.9012 4.99666C14.7614 4.99666 15.4568 4.25 15.4568 3.33C15.4568 2.40833 14.7614 1.66333 13.9012 1.66333Z" fill="#E6E9ED"/>
<path d="M49 11C61.1471 11 71 21.0784 71 33.5C71 45.9393 61.1471 56 49 56C36.8529 56 27 45.9393 27 33.5C27 21.08 36.8529 11 49 11Z" fill="#7B68AE"/>
<path d="M48.4223 11C47.603 11 46.7967 11.0498 46 11.135C57.3276 12.3404 66.1571 21.8948 66.1571 33.5C66.1571 45.1229 57.3276 54.6629 46 55.8682C46.7967 55.9534 47.603 56 48.4223 56C60.8884 56 71 45.9393 71 33.5C71 21.08 60.8884 11 48.4223 11Z" fill="#4F3592"/>
<path d="M62.0253 73H34.9747C32.7823 73 31 74.7936 31 77C31 79.2064 32.7823 81 34.9747 81H62.0253C64.2177 81 66 79.2064 66 77C66 74.7936 64.2177 73 62.0253 73Z" fill="#545C66"/>
<path d="M85.4171 64H12.5829C11.7075 64 11 63.3295 11 62.5C11 61.6705 11.7075 61 12.5829 61H85.4171C86.2925 61 87 61.6705 87 62.5C87 63.3295 86.2925 64 85.4171 64Z" fill="#CCCCD0"/>
<path d="M70.4339 68H26.5661C25.7001 68 25 67.3295 25 66.5C25 65.6705 25.7001 65 26.5661 65H70.4339C71.2999 65 72 65.6705 72 66.5C72 67.3295 71.2999 68 70.4339 68Z" fill="#CCCCD0"/>
<path d="M45.499 43C45.1148 43 44.7307 42.8366 44.4381 42.5114L38.4401 35.8467C37.8533 35.1948 37.8533 34.1409 38.4401 33.489C39.0268 32.837 39.9752 32.837 40.5619 33.489L46.5599 40.1537C47.1467 40.8057 47.1467 41.8595 46.5599 42.5114C46.2673 42.8366 45.8832 43 45.499 43Z" fill="#F7A085"/>
<path d="M45.5459 43C45.1503 43 44.7546 42.8396 44.4532 42.5205C43.8489 41.8807 43.8489 40.8464 44.4532 40.2065L58.3614 25.4799C58.9657 24.84 59.9425 24.84 60.5468 25.4799C61.1511 26.1198 61.1511 27.154 60.5468 27.7939L46.6386 42.5205C46.3372 42.8396 45.9416 43 45.5459 43Z" fill="#F7A085"/>
<path d="M31 75H66V77H31L31 75Z" fill="#545C66"/>
<path d="M62.0253 72H34.9747C32.7823 72 31 73.7936 31 76C31 78.2064 32.7823 80 34.9747 80H62.0253C64.2177 80 66 78.2064 66 76C66 73.7936 64.2177 72 62.0253 72Z" fill="#666673"/>
</svg>
