<svg width="22" height="22" viewBox="0 0 22 22" fill="none" xmlns="http://www.w3.org/2000/svg">
<path fill-rule="evenodd" clip-rule="evenodd" d="M8.32788 0H0.859375C0.384705 0 0 0.384705 0 0.859375V21.1406C0 21.6153 0.384705 22 0.859375 22H8.32788C8.80238 22 9.18726 21.6153 9.18726 21.1406C9.18726 20.666 8.80238 20.2812 8.32788 20.2812H1.71875V1.71875H8.32788C8.80238 1.71875 9.18726 1.33405 9.18726 0.859375C9.18726 0.384705 8.80238 0 8.32788 0ZM21.1406 11.8594H5.88571L8.98349 15.5147C9.29031 15.8768 9.2455 16.4191 8.88345 16.7259C8.52007 17.0339 7.97792 16.9866 7.67227 16.6259L3.3754 11.5556C3.105 11.2368 3.10449 10.7638 3.3754 10.4444L7.67227 5.37411C7.9791 5.01207 8.52141 4.96725 8.88345 5.27408C9.2455 5.5809 9.29031 6.12321 8.98349 6.48526L5.88571 10.1406H21.1406C21.6153 10.1406 22 10.5253 22 11C22 11.4747 21.6153 11.8594 21.1406 11.8594Z" fill="white"/>
</svg>
