<svg width="40" height="43" viewBox="0 0 40 43" fill="none" xmlns="http://www.w3.org/2000/svg">
<path d="M34.6143 11H6.79245V11.0192C6.66717 11.0123 6.54264 11 6.41509 11C2.87245 11 0 13.9179 0 17.5167V34H12.8302H21.8868H30.9434H40V16.4709C40 13.4495 37.5887 11 34.6143 11Z" fill="#4F3592"/>
<rect x="17" y="34" width="6" height="9" fill="#F7A085"/>
<rect x="21" y="35" width="3" height="2" fill="#666673"/>
<rect x="21" y="38" width="3" height="2" fill="#6C4127"/>
<rect x="21" y="39" width="3" height="2" fill="#666673"/>
<path d="M13 34H0V17.5167C0 13.9179 2.91047 11 6.5 11C10.0895 11 13 13.9179 13 17.5167V34Z" fill="#7B68AE"/>
<path d="M21 23C19.3433 23 18 21.6567 18 20C18 18.3433 19.3433 17 21 17C22.6567 17 24 18.3433 24 20C24 21.6567 22.6567 23 21 23Z" fill="#454555"/>
<path d="M31 6H22V0H31L28.75 3L31 6Z" fill="#F1635D"/>
<rect x="21" width="2" height="20" fill="#454555"/>
</svg>
