<svg width="22" height="22" viewBox="0 0 22 22" fill="none" xmlns="http://www.w3.org/2000/svg">
<path fill-rule="evenodd" clip-rule="evenodd" d="M2.67037 13.5713L1.12621 13.3094C0.469021 13.1991 -0.00893402 12.6338 0.000257492 11.9674V10.0326C0.000257492 9.3662 0.478212 8.80092 1.1354 8.69062L2.67957 8.43326C2.83582 7.91853 3.04722 7.41759 3.29999 6.93503L2.39004 5.65741C2.00399 5.1151 2.06833 4.37518 2.5371 3.90641L3.90662 2.53687C4.16398 2.27951 4.50407 2.13704 4.86713 2.13704C5.15207 2.13704 5.42781 2.22436 5.6576 2.3898L6.93061 3.29977C7.40857 3.047 7.9095 2.84019 8.42882 2.67934L8.69078 1.13516C8.80107 0.477962 9.36635 0 10.0327 0H11.9721C12.6385 0 13.2038 0.477962 13.3141 1.13516L13.5714 2.67934C14.0724 2.8356 14.5595 3.03321 15.0237 3.27679L16.3151 2.35764C16.5449 2.19219 16.816 2.10487 17.101 2.10487C17.464 2.10487 17.8041 2.24734 18.0615 2.5047L19.431 3.87424C19.9043 4.34301 19.9641 5.08293 19.5781 5.62523L18.6727 6.88448C18.9301 7.36244 19.1415 7.86338 19.3023 8.37811L20.8649 8.64466C21.522 8.75496 22 9.32024 22 9.98663V11.9215C22 12.5878 21.522 13.1531 20.8649 13.2634L19.3391 13.5208C19.1828 14.0401 18.9806 14.541 18.7278 15.0236L19.647 16.315C20.033 16.8573 19.9687 17.5972 19.4999 18.066L18.1258 19.4356C17.873 19.6929 17.5284 19.8354 17.1653 19.8354C16.8804 19.8354 16.6046 19.7481 16.3748 19.5826L15.111 18.6727C14.6331 18.93 14.1321 19.1414 13.6174 19.3023L13.3508 20.8648C13.2405 21.522 12.6753 22 12.0089 22H10.0741C9.40771 22 8.84243 21.522 8.73214 20.8648L8.47478 19.339C7.93708 19.1782 7.41776 18.9622 6.92142 18.7002L5.64381 19.6102C5.41402 19.7756 5.14288 19.863 4.85794 19.863C4.49488 19.863 4.15479 19.7205 3.89743 19.4631L2.52791 18.0936C2.05455 17.6248 1.9948 16.8849 2.38084 16.3426L3.2908 15.0696C3.03803 14.5916 2.83122 14.0907 2.67037 13.5713ZM1.33302 9.9131C1.27327 9.92229 1.23191 9.97284 1.23191 10.0326H1.22732V11.9674C1.22732 12.0272 1.26868 12.0777 1.32842 12.0869L3.25863 12.4132C3.4976 12.45 3.69522 12.6292 3.75496 12.8682C3.9296 13.5438 4.19615 14.1918 4.55462 14.7938C4.67871 15.0052 4.66952 15.2718 4.52705 15.4694L3.3919 17.0641C3.35973 17.1147 3.36433 17.179 3.40569 17.2204L4.77522 18.5899C4.80739 18.6221 4.84415 18.6267 4.86254 18.6267C4.88552 18.6267 4.90849 18.6175 4.93147 18.6037L6.517 17.464C6.71921 17.3215 6.98117 17.3123 7.19257 17.4364C7.8084 17.7995 8.47018 18.0706 9.16413 18.2452C9.40311 18.305 9.58235 18.5026 9.62371 18.7462L9.94541 20.6626C9.9546 20.7224 10.0052 20.7637 10.0649 20.7637H11.9997C12.0594 20.7637 12.11 20.7224 12.1192 20.6626L12.4501 18.7186C12.4914 18.4796 12.6707 18.2866 12.9051 18.2223C13.5806 18.0476 14.2286 17.7719 14.8261 17.4134C15.0375 17.2893 15.304 17.2985 15.5062 17.441L17.0918 18.5715C17.1101 18.5853 17.1331 18.5945 17.1607 18.5945C17.1837 18.5945 17.2158 18.5899 17.248 18.5578L18.6175 17.1882C18.6589 17.1469 18.6635 17.0779 18.6313 17.032L17.487 15.4234C17.3445 15.2258 17.3307 14.9639 17.4548 14.7525C17.8087 14.1504 18.0707 13.4978 18.2407 12.8222C18.3004 12.5832 18.4981 12.404 18.7416 12.3626L20.658 12.0409C20.7178 12.0318 20.7592 11.9812 20.7592 11.9215V9.98663C20.7592 9.92689 20.7178 9.87633 20.658 9.86714L18.7141 9.53624C18.4751 9.49488 18.2821 9.31565 18.2177 9.08126C18.0431 8.40568 17.7673 7.75768 17.4089 7.16022C17.2848 6.94882 17.294 6.68226 17.4364 6.48005L18.567 4.89451C18.5992 4.84395 18.5946 4.77961 18.5532 4.73825L17.1837 3.36871C17.1515 3.33654 17.1147 3.33194 17.0964 3.33194C17.0734 3.33194 17.0504 3.34113 17.0274 3.35492L15.4189 4.49927C15.3132 4.5774 15.1845 4.61416 15.0605 4.61416C14.9548 4.61416 14.8445 4.58659 14.7479 4.53144C14.1551 4.19135 13.5209 3.92939 12.8637 3.75935C12.6293 3.6996 12.4501 3.50658 12.4087 3.263L12.087 1.33278C12.0778 1.27303 12.0273 1.23167 11.9675 1.23167H10.0327C9.97298 1.23167 9.92243 1.27303 9.91324 1.33278L9.58694 3.263C9.55018 3.50199 9.37094 3.6996 9.13197 3.75935C8.45639 3.93399 7.8084 4.20054 7.20636 4.55901C6.99495 4.6831 6.7284 4.67391 6.53078 4.53144L4.93607 3.39628C4.91768 3.3825 4.89471 3.3733 4.86713 3.3733C4.84415 3.3733 4.81198 3.3779 4.77981 3.41007L3.41029 4.77961C3.36893 4.82097 3.36433 4.88991 3.3965 4.93587L4.53164 6.5352C4.67411 6.73741 4.6833 6.99937 4.55922 7.21078C4.20075 7.81283 3.9342 8.46083 3.75956 9.13641C3.69982 9.3708 3.5068 9.55003 3.26322 9.59139L1.33302 9.9131Z" fill="white"/>
<path fill-rule="evenodd" clip-rule="evenodd" d="M15.3999 11C15.3999 13.4279 13.4278 15.4 10.9999 15.4C8.57202 15.4 6.5999 13.4279 6.5999 11C6.5999 8.57211 8.57202 6.59999 10.9999 6.59999C13.4278 6.59999 15.3999 8.57211 15.3999 11ZM14.2499 11C14.2499 9.20677 12.7931 7.75004 10.9999 7.75004C9.20668 7.75004 7.74995 9.20677 7.74995 11C7.74995 12.7932 9.20668 14.2499 10.9999 14.2499C12.7931 14.2499 14.2499 12.7932 14.2499 11Z" fill="white"/>
</svg>
