<svg width="77" height="88" viewBox="0 0 77 88" fill="none" xmlns="http://www.w3.org/2000/svg">
<path d="M63.4898 61C70.9484 60.9947 76.9985 67.0381 77 74.4966C77.0023 81.9552 70.9552 88.0023 63.4966 88C56.0381 87.9985 49.9947 81.9484 50 74.4898C50.0008 67.0396 56.0403 61.0008 63.4898 61Z" fill="#4F3592"/>
<path d="M59.1046 30C61.2562 30.0008 62.9992 31.7338 63 33.8713V60.5793C58.6953 60.5823 54.6446 62.6041 52.0715 66.0338C49.4992 69.4635 48.7056 73.8989 49.9313 78H3.89542C1.74381 78 0 76.267 0 74.1287V33.8713C0.000760833 31.7338 1.74381 30.0008 3.89542 30H59.1046Z" fill="#7B68AE"/>
<path d="M53 28.7943V29H48.7635V12.3409C48.7589 7.79901 44.9705 4.11859 40.2952 4.11262H35V0H40.2952C47.312 0 53 5.52548 53 12.3409V28.7943Z" fill="#4F3592"/>
<path d="M29 0H35V5H29V0Z" fill="#F7A085"/>
<path d="M15.2357 28.7943V29H11V12.3409C11 5.52548 16.688 0 23.7048 0H29V4.11262H23.7048C19.0295 4.11859 15.2411 7.79901 15.2357 12.3409V28.7943Z" fill="#4F3592"/>
<path d="M62.9992 80C62.3623 80 61.8455 79.4689 61.8455 78.8126V77.095C61.835 75.2289 62.7874 73.4966 64.3474 72.545C65.4778 71.8717 65.9757 70.4609 65.5281 69.1978C65.0812 67.9355 63.8171 67.1849 62.5313 67.4191C61.2454 67.6525 60.3073 68.8028 60.3073 70.1471C60.3073 70.8026 59.7913 71.3344 59.1537 71.3344C58.5167 71.3344 58 70.8026 58 70.1471C58.0023 68.7209 58.5783 67.358 59.59 66.384C60.6017 65.4046 61.9665 64.9075 63.3515 65.0142C65.5424 65.1735 67.3758 66.7852 67.8707 68.9875C68.3664 71.1899 67.4066 73.4664 65.5063 74.5997C64.6561 75.1246 64.1408 76.0746 64.1529 77.095V78.8126C64.1529 79.4689 63.6369 80 62.9992 80Z" fill="#F7A085"/>
<path fill-rule="evenodd" clip-rule="evenodd" d="M61 81.9996C61 83.1049 61.8951 84 62.9996 84C64.104 83.9983 64.9983 83.104 65 81.9996C65 80.8951 64.104 80 62.9996 80C61.8951 80 61 80.8951 61 81.9996ZM62.4695 81.7794C62.5591 81.5658 62.7685 81.4268 62.9996 81.4277C63.3153 81.4293 63.5698 81.6847 63.5698 81.9996C63.5698 82.2315 63.43 82.4409 63.2165 82.5288C63.0021 82.6175 62.7559 82.5681 62.5926 82.404C62.4285 82.2399 62.3799 81.9929 62.4695 81.7794Z" fill="#F7A085"/>
<path fill-rule="evenodd" clip-rule="evenodd" d="M23.5542 54.5024C23.5542 55.846 24.5881 56.9349 25.8641 56.9357C27.1409 56.9349 28.1756 55.8452 28.1771 54.5024C28.1763 53.1589 27.1416 52.0708 25.8649 52.0708C24.5889 52.0708 23.5542 53.1597 23.5542 54.5024ZM25.8192 54.4544C25.8316 54.4422 25.8479 54.4349 25.8641 54.4357C25.8819 54.4349 25.8981 54.4414 25.9105 54.4544C25.9229 54.4666 25.9298 54.4837 25.9298 54.5024C25.9298 54.5399 25.9012 54.57 25.8656 54.57C25.8301 54.57 25.8015 54.5399 25.8015 54.5024C25.8007 54.4845 25.8076 54.4674 25.8192 54.4544Z" fill="#F7A085"/>
<path fill-rule="evenodd" clip-rule="evenodd" d="M34.9351 54.5041C34.9358 55.8477 35.9713 56.9357 37.2473 56.9357C38.5233 56.9325 39.5564 55.8444 39.558 54.5024C39.5572 53.1589 38.5225 52.07 37.2457 52.0708C35.969 52.0716 34.9351 53.1605 34.9351 54.5041ZM37.2017 54.4544C37.214 54.4414 37.2303 54.4349 37.2473 54.4357C37.2643 54.4349 37.2805 54.4422 37.2929 54.4544C37.3045 54.4674 37.3115 54.4845 37.3107 54.5024C37.3107 54.5399 37.2821 54.57 37.2465 54.57C37.2109 54.57 37.1823 54.5399 37.1823 54.5024C37.1823 54.4837 37.1893 54.4666 37.2017 54.4544Z" fill="#F7A085"/>
<path fill-rule="evenodd" clip-rule="evenodd" d="M46.3184 54.5024C46.3184 55.846 47.3531 56.9349 48.629 56.9357C49.9058 56.9349 50.9405 55.8452 50.9413 54.5024C50.9405 53.1589 49.9058 52.0708 48.6298 52.0708C47.3531 52.0708 46.3191 53.1597 46.3184 54.5024ZM48.5834 54.4544C48.5958 54.4422 48.612 54.4349 48.629 54.4357C48.646 54.4349 48.6623 54.4414 48.6747 54.4544C48.687 54.4666 48.694 54.4837 48.694 54.5024C48.6948 54.5203 48.6878 54.5382 48.6754 54.5513C48.6631 54.5635 48.646 54.5708 48.629 54.5708C48.612 54.5708 48.5958 54.5635 48.5834 54.5505C48.5718 54.5374 48.5648 54.5203 48.5656 54.5024C48.5648 54.4845 48.5718 54.4674 48.5834 54.4544Z" fill="#F7A085"/>
<path fill-rule="evenodd" clip-rule="evenodd" d="M12.1709 54.5041C12.1717 55.8477 13.2064 56.9357 14.4831 56.9357C15.7591 56.9325 16.7923 55.8444 16.7938 54.5024C16.793 53.1589 15.7576 52.07 14.4808 52.0708C13.2048 52.0716 12.1701 53.1605 12.1709 54.5041ZM14.4375 54.4544C14.4491 54.4414 14.4661 54.4349 14.4831 54.4357C14.5001 54.4349 14.5164 54.4422 14.528 54.4544C14.5403 54.4674 14.5465 54.4845 14.5465 54.5024C14.5465 54.5203 14.5403 54.5374 14.5287 54.5505C14.5164 54.5635 14.5001 54.5708 14.4831 54.5708C14.4661 54.5708 14.4491 54.5635 14.4367 54.5513C14.4244 54.5383 14.4174 54.5203 14.4182 54.5024C14.4182 54.4837 14.4251 54.4666 14.4375 54.4544Z" fill="#F7A085"/>
</svg>
