<svg width="24" height="24" viewBox="0 0 24 24" fill="none" xmlns="http://www.w3.org/2000/svg">
<path fill-rule="evenodd" clip-rule="evenodd" d="M14.6721 1H22.1406C22.6153 1 23 1.3847 23 1.85938V22.1406C23 22.6153 22.6153 23 22.1406 23H14.6721C14.1976 23 13.8127 22.6153 13.8127 22.1406C13.8127 21.666 14.1976 21.2812 14.6721 21.2812H21.2812V2.71875H14.6721C14.1976 2.71875 13.8127 2.33405 13.8127 1.85938C13.8127 1.3847 14.1976 1 14.6721 1ZM1.85938 12.8594H17.1143L14.0165 16.5147C13.7097 16.8768 13.7545 17.4191 14.1165 17.7259C14.4799 18.0339 15.0221 17.9866 15.3277 17.6259L19.6246 12.5556C19.895 12.2368 19.8955 11.7638 19.6246 11.4444L15.3277 6.37411C15.0209 6.01207 14.4786 5.96725 14.1165 6.27408C13.7545 6.5809 13.7097 7.12321 14.0165 7.48526L17.1143 11.1406H1.85938C1.3847 11.1406 1 11.5253 1 12C1 12.4747 1.3847 12.8594 1.85938 12.8594Z" fill="white"/>
</svg>
