<svg width="49" height="47" viewBox="0 0 49 47" fill="none" xmlns="http://www.w3.org/2000/svg">
<path d="M34.2342 47H13.7666C12.2383 47 11 45.7642 11 44.2408V2.75922C11 1.23497 12.2391 0 13.7666 0H34.2334C35.7617 0 37 1.23578 37 2.75922V44.24C37.0008 45.7642 35.7617 47 34.2342 47Z" fill="#CCCCD0"/>
<path d="M24.5 45C25.8807 45 27 43.8807 27 42.5C27 41.1193 25.8807 40 24.5 40C23.1193 40 22 41.1193 22 42.5C22 43.8807 23.1193 45 24.5 45Z" fill="white"/>
<path d="M24.1667 3H20.8333C20.3725 3 20 2.553 20 2C20 1.447 20.3725 1 20.8333 1H24.1667C24.6275 1 25 1.447 25 2C25 2.553 24.6275 3 24.1667 3Z" fill="#424A60"/>
<path d="M27.3333 3H26.6667C26.298 3 26 2.553 26 2C26 1.447 26.298 1 26.6667 1H27.3333C27.702 1 28 1.447 28 2C28 2.553 27.702 3 27.3333 3Z" fill="#424A60"/>
<path d="M45.7854 16C45.5844 16 45.3834 15.9191 45.2303 15.7582C44.9232 15.4356 44.9232 14.9141 45.2303 14.5914C48.1638 11.5086 48.1638 6.49242 45.2303 3.40877C44.9232 3.08613 44.9232 2.56462 45.2303 2.24198C45.5373 1.91934 46.0335 1.91934 46.3405 2.24198C49.8865 5.96844 49.8865 12.0318 46.3405 15.7582C46.1874 15.92 45.9864 16 45.7854 16Z" fill="#4F3592"/>
<path d="M42.7126 14C42.5302 14 42.3478 13.9228 42.2089 13.7691C41.9304 13.461 41.9304 12.9631 42.2089 12.655C43.0901 11.6811 43.5752 10.3825 43.5752 9.00049C43.5752 7.61844 43.0901 6.32069 42.2089 5.34522C41.9304 5.03713 41.9304 4.53915 42.2089 4.23106C42.4874 3.92298 42.9377 3.92298 43.2162 4.23106C44.3667 5.50281 45 7.19768 45 9.00049C45 10.8033 44.3667 12.4974 43.2162 13.7691C43.0773 13.9236 42.8949 14 42.7126 14Z" fill="#4F3592"/>
<path d="M3.2146 16C3.01359 16 2.81258 15.9191 2.65947 15.7582C-0.88649 12.0318 -0.88649 5.96844 2.65947 2.24198C2.96648 1.91934 3.46273 1.91934 3.76974 2.24198C4.07675 2.56462 4.07675 3.08613 3.76974 3.40877C0.836237 6.49159 0.836237 11.5078 3.76974 14.5914C4.07675 14.9141 4.07675 15.4356 3.76974 15.7582C3.61584 15.92 3.41562 16 3.2146 16Z" fill="#4F3592"/>
<path d="M6.28744 14C6.10508 14 5.92271 13.9228 5.78379 13.7691C4.6333 12.4974 4 10.8025 4 8.9997C4 7.19689 4.6333 5.50281 5.78379 4.23106C6.06233 3.92298 6.51256 3.92298 6.7911 4.23106C7.06963 4.53915 7.06963 5.03713 6.7911 5.34522C5.90988 6.31912 5.42476 7.61765 5.42476 8.9997C5.42476 10.3818 5.90988 11.6795 6.7911 12.655C7.06963 12.9631 7.06963 13.461 6.7911 13.7691C6.65147 13.9228 6.46981 14 6.28744 14Z" fill="#4F3592"/>
<rect x="11" y="5" width="26" height="34" fill="#454555"/>
</svg>
