<svg width="24" height="24" viewBox="0 0 24 24" fill="none" xmlns="http://www.w3.org/2000/svg">
<path d="M17.4545 10.2782V10.2983L17.4554 10.3184C17.5128 11.745 18.1612 13.0834 19.2452 14.0127L19.2475 14.0146C19.8117 14.4954 20.1698 15.1737 20.2491 15.9094C20.2279 16.4022 19.8109 17.0766 18.1899 17.6666C16.5869 18.25 14.1572 18.5964 11 18.5964C7.84284 18.5964 5.41308 18.25 3.81012 17.6666C2.18908 17.0766 1.77207 16.4022 1.75087 15.9094C1.83024 15.1737 2.18828 14.4954 2.75251 14.0146L2.75478 14.0127C3.83876 13.0834 4.48721 11.745 4.54465 10.3184L4.54545 10.2983V10.2782V8.41454C4.54545 4.8498 7.43525 1.96 11 1.96C14.5647 1.96 17.4545 4.8498 17.4545 8.41454V10.2782Z" stroke="white" stroke-width="2"/>
<path fill-rule="evenodd" clip-rule="evenodd" d="M7.5 21C7.97954 22.5297 9.39691 23.5707 11 23.5707C12.6031 23.5707 14.0205 22.5297 14.5 21C13.404 21.0809 12.2394 21.1226 11 21.1226C9.7606 21.1226 8.59597 21.0834 7.5 21Z" fill="white"/>
</svg>
