<svg width="24" height="24" viewBox="0 0 24 24" fill="none" xmlns="http://www.w3.org/2000/svg">
<mask id="path-1-inside-1" fill="white">
<path fill-rule="evenodd" clip-rule="evenodd" d="M2 10.1154C2 14.8735 5.85724 18.7308 10.6154 18.7308C15.3735 18.7308 19.2308 14.8735 19.2308 10.1154C19.2308 5.35724 15.3735 1.5 10.6154 1.5C5.85724 1.5 2 5.35724 2 10.1154ZM22.6846 22.1846C23.1051 21.764 23.1051 21.0821 22.6846 20.6616L18.9153 16.8923C18.4948 16.4718 17.8129 16.4718 17.3923 16.8923C16.9718 17.3129 16.9718 17.9948 17.3923 18.4153L21.1616 22.1846C21.5821 22.6051 22.264 22.6051 22.6846 22.1846Z"/>
</mask>
<path d="M22.6846 20.6616L24.0988 19.2474L24.0988 19.2474L22.6846 20.6616ZM22.6846 22.1846L24.0988 23.5988L24.0988 23.5988L22.6846 22.1846ZM18.9153 16.8923L20.3296 15.4781L20.3296 15.4781L18.9153 16.8923ZM17.3923 16.8923L15.9781 15.4781L15.9781 15.4781L17.3923 16.8923ZM17.3923 18.4153L15.9781 19.8296L15.9781 19.8296L17.3923 18.4153ZM21.1616 22.1846L19.7474 23.5988L19.7474 23.5988L21.1616 22.1846ZM10.6154 16.7308C6.96181 16.7308 4 13.769 4 10.1154H0C0 15.9781 4.75267 20.7308 10.6154 20.7308V16.7308ZM17.2308 10.1154C17.2308 13.769 14.269 16.7308 10.6154 16.7308V20.7308C16.4781 20.7308 21.2308 15.9781 21.2308 10.1154H17.2308ZM10.6154 3.5C14.269 3.5 17.2308 6.46181 17.2308 10.1154H21.2308C21.2308 4.25267 16.4781 -0.5 10.6154 -0.5V3.5ZM4 10.1154C4 6.46181 6.96181 3.5 10.6154 3.5V-0.5C4.75267 -0.5 0 4.25267 0 10.1154H4ZM21.2704 22.0758C20.9099 21.7153 20.9099 21.1308 21.2704 20.7704L24.0988 23.5988C25.3004 22.3972 25.3004 20.449 24.0988 19.2474L21.2704 22.0758ZM17.5011 18.3066L21.2704 22.0758L24.0988 19.2474L20.3296 15.4781L17.5011 18.3066ZM18.8066 18.3066C18.4461 18.667 17.8616 18.667 17.5011 18.3066L20.3296 15.4781C19.1279 14.2765 17.1797 14.2765 15.9781 15.4781L18.8066 18.3066ZM18.8066 17.0011C19.167 17.3616 19.167 17.9461 18.8066 18.3066L15.9781 15.4781C14.7765 16.6797 14.7765 18.6279 15.9781 19.8296L18.8066 17.0011ZM22.5758 20.7704L18.8066 17.0011L15.9781 19.8296L19.7474 23.5988L22.5758 20.7704ZM21.2704 20.7704C21.6308 20.4099 22.2153 20.4099 22.5758 20.7704L19.7474 23.5988C20.949 24.8004 22.8972 24.8004 24.0988 23.5988L21.2704 20.7704Z" fill="white" mask="url(#path-1-inside-1)"/>
</svg>
