<svg width="80" height="90" viewBox="0 0 80 90" fill="none" xmlns="http://www.w3.org/2000/svg">
<rect width="52" height="90" rx="9" fill="#888892"/>
<path d="M26 88C27.6569 88 29 86.6569 29 85C29 83.3431 27.6569 82 26 82C24.3431 82 23 83.3431 23 85C23 86.6569 24.3431 88 26 88Z" fill="#E6E6E6"/>
<rect y="10" width="52" height="71" fill="#EEEEEF"/>
<path d="M26.5003 5.99995C26.3043 5.99756 26.1106 5.95654 25.9303 5.8792C25.7468 5.80626 25.5788 5.69867 25.4354 5.56222C25.3033 5.41517 25.1969 5.24678 25.1204 5.06412C25.0364 4.88502 24.9953 4.68856 25.0004 4.49055C25.0028 4.29331 25.0436 4.09844 25.1204 3.91698C25.1929 3.73226 25.2998 3.56319 25.4354 3.41888C26.0368 2.86037 26.9637 2.86037 27.5651 3.41888C27.6975 3.56568 27.804 3.73413 27.8801 3.91698C28.04 4.28243 28.04 4.69867 27.8801 5.06412C27.8036 5.24678 27.6972 5.41517 27.5651 5.56222C27.2826 5.84562 26.8991 6.00328 26.5003 5.99995Z" fill="#E6E6E6"/>
<path d="M80 85.6637C80 88.0586 78.0586 90 75.6637 90C74.5136 90.0002 73.4105 89.5436 72.5971 88.7304L57 73.1333L63.1333 67L78.7304 82.5971C79.5436 83.4105 80.0002 84.5136 80 85.6637Z" fill="#F1635D"/>
<path d="M54.2965 66.2705L56.4722 64.076L61.088 68.7316L58.9123 70.9261L54.2965 66.2705Z" fill="#F1635D"/>
<path d="M35 75C51.0163 75 64 61.7924 64 45.5C64 29.2076 51.0163 16 35 16C18.9837 16 6 29.2076 6 45.5C6 61.7924 18.9837 75 35 75Z" fill="#7B68AE"/>
<rect x="18.5" y="42.5" width="6" height="6" rx="3" fill="#F7A085" stroke="#F1635D"/>
<rect x="27.5" y="42.5" width="6" height="6" rx="3" fill="#F7A085" stroke="#F1635D"/>
<rect x="36.5" y="42.5" width="6" height="6" rx="3" fill="#F7A085" stroke="#F1635D"/>
<rect x="45.5" y="42.5" width="6" height="6" rx="3" fill="#F7A085" stroke="#F1635D"/>
<path d="M56.9242 72.9314L63.0782 66.7244L67.694 71.3799L61.54 77.587L56.9242 72.9314Z" fill="#F7A085"/>
</svg>
