<svg width="24" height="24" viewBox="0 0 24 24" fill="none" xmlns="http://www.w3.org/2000/svg">
<mask id="path-1-inside-1" fill="white">
<path fill-rule="evenodd" clip-rule="evenodd" d="M13.4843 2.62546C12.7023 1.84368 11.4343 1.84485 10.6537 2.62807L3.7031 9.60221C3.53869 9.76718 3.41109 9.94731 3.31744 10.1358C3.047 10.4769 2.8855 10.9083 2.8855 11.3774V20.0833C2.8855 21.1879 3.78093 22.0833 4.8855 22.0833H19.2499C20.3545 22.0833 21.2499 21.1879 21.2499 20.0833V11.3774C21.2499 10.8695 21.0606 10.4058 20.7487 10.0531C20.6533 9.85129 20.5196 9.65867 20.3443 9.48344L13.4843 2.62546Z"/>
</mask>
<path fill-rule="evenodd" clip-rule="evenodd" d="M13.4843 2.62546C12.7023 1.84368 11.4343 1.84485 10.6537 2.62807L3.7031 9.60221C3.53869 9.76718 3.41109 9.94731 3.31744 10.1358C3.047 10.4769 2.8855 10.9083 2.8855 11.3774V20.0833C2.8855 21.1879 3.78093 22.0833 4.8855 22.0833H19.2499C20.3545 22.0833 21.2499 21.1879 21.2499 20.0833V11.3774C21.2499 10.8695 21.0606 10.4058 20.7487 10.0531C20.6533 9.85129 20.5196 9.65867 20.3443 9.48344L13.4843 2.62546Z" fill="white"/>
<path d="M10.6537 2.62807L9.23709 1.21625L10.6537 2.62807ZM13.4843 2.62546L12.0703 4.03989V4.03989L13.4843 2.62546ZM3.7031 9.60221L5.11971 11.014L5.11971 11.014L3.7031 9.60221ZM3.31744 10.1358L4.88462 11.3784L5.01513 11.2138L5.10859 11.0256L3.31744 10.1358ZM20.7487 10.0531L18.9405 10.9079L19.0621 11.1649L19.2504 11.3779L20.7487 10.0531ZM20.3443 9.48344L18.9303 10.8979L18.9303 10.8979L20.3443 9.48344ZM12.0703 4.03989L12.0703 4.03989L14.8983 1.21104C13.3343 -0.352532 10.7982 -0.350194 9.23709 1.21625L12.0703 4.03989ZM5.11971 11.014L12.0703 4.03989L9.23709 1.21625L2.2865 8.19039L5.11971 11.014ZM5.10859 11.0256C5.10719 11.0284 5.1065 11.0292 5.10747 11.0279C5.10842 11.0265 5.11199 11.0218 5.11971 11.014L2.2865 8.19039C1.97197 8.50599 1.71712 8.86187 1.52629 9.24599L5.10859 11.0256ZM4.8855 11.3774C4.8855 11.3751 4.88568 11.3744 4.88558 11.375C4.88549 11.3755 4.88529 11.3763 4.88498 11.3772C4.88435 11.379 4.88392 11.3793 4.88462 11.3784L1.75026 8.89325C1.20961 9.57515 0.885498 10.4412 0.885498 11.3774H4.8855ZM4.8855 20.0833V11.3774H0.885498V20.0833H4.8855ZM4.8855 20.0833H4.8855H0.885498C0.885498 22.2925 2.67637 24.0833 4.8855 24.0833V20.0833ZM19.2499 20.0833H4.8855V24.0833H19.2499V20.0833ZM19.2499 20.0833V20.0833V24.0833C21.459 24.0833 23.2499 22.2925 23.2499 20.0833H19.2499ZM19.2499 11.3774V20.0833H23.2499V11.3774H19.2499ZM19.2504 11.3779L19.2499 11.3774H23.2499C23.2499 10.3629 22.8697 9.43247 22.2469 8.72822L19.2504 11.3779ZM18.9303 10.8979C18.9383 10.9059 18.9418 10.9106 18.9424 10.9115C18.9431 10.9125 18.9421 10.9112 18.9405 10.9079L22.5568 9.19826C22.362 8.78625 22.0943 8.40483 21.7583 8.06901L18.9303 10.8979ZM12.0703 4.03989L18.9303 10.8979L21.7583 8.06901L14.8983 1.21104L12.0703 4.03989Z" fill="white" mask="url(#path-1-inside-1)"/>
</svg>
