<svg width="25" height="24" viewBox="0 0 25 24" fill="none" xmlns="http://www.w3.org/2000/svg">
<path d="M16.0625 4.78125C15.7917 4.52083 15.5052 4.32292 15.2031 4.1875C14.9115 4.05208 14.6042 3.98438 14.2812 3.98438C13.7812 3.98438 13.3594 4.10417 13.0156 4.34375C12.6719 4.57292 12.4479 4.73958 12.3438 4.84375C12.2708 4.90625 11.7135 5.45833 10.6719 6.5C9.64062 7.54167 8.51562 8.67188 7.29688 9.89062C6.07812 11.1094 4.96354 12.224 3.95312 13.2344C2.95312 14.2344 2.45312 14.7344 2.45312 14.7344C2.42188 14.7656 2.39583 14.8021 2.375 14.8438C2.35417 14.875 2.33333 14.9115 2.3125 14.9531C2.26042 15.1615 2.16146 15.5052 2.01562 15.9844C1.88021 16.4531 1.73438 16.9375 1.57812 17.4375C1.43229 17.9375 1.30208 18.3802 1.1875 18.7656C1.07292 19.1406 1.01042 19.3333 1 19.3438C0.979167 19.4375 0.979167 19.5312 1 19.625C1.02083 19.7188 1.06771 19.7969 1.14062 19.8594C1.18229 19.9115 1.23438 19.9479 1.29688 19.9688C1.35938 20 1.42188 20.0156 1.48438 20.0156C1.51562 20.0156 1.54167 20.0104 1.5625 20C1.59375 20 1.61979 19.9948 1.64062 19.9844C1.65104 19.9844 1.85417 19.9167 2.25 19.7812C2.64583 19.6562 3.08854 19.5156 3.57812 19.3594C4.07812 19.2031 4.5625 19.0521 5.03125 18.9062C5.5 18.75 5.80729 18.651 5.95312 18.6094C5.99479 18.599 6.03125 18.5833 6.0625 18.5625C6.10417 18.5417 6.14062 18.5156 6.17188 18.4844C6.26562 18.3906 6.80729 17.8542 7.79688 16.875C8.78646 15.8958 9.86979 14.8229 11.0469 13.6562C12.2344 12.4792 13.3385 11.3854 14.3594 10.375C15.3802 9.36458 15.9635 8.78125 16.1094 8.625C16.4115 8.3125 16.6406 7.99479 16.7969 7.67188C16.9531 7.33854 17.026 7 17.0156 6.65625C17.0052 6.33333 16.9219 6.01562 16.7656 5.70312C16.6094 5.38021 16.375 5.07292 16.0625 4.78125ZM12.1875 6.4375C12.3125 6.46875 12.5104 6.54688 12.7812 6.67188C13.0521 6.79688 13.3438 7.01042 13.6562 7.3125C13.9688 7.625 14.1771 7.9375 14.2812 8.25C14.3958 8.55208 14.4583 8.74479 14.4688 8.82812C13.9792 9.30729 13.3542 9.92188 12.5938 10.6719C11.8438 11.4219 11.0677 12.1979 10.2656 13C9.46354 13.7917 8.69271 14.5521 7.95312 15.2812C7.22396 16 6.64062 16.5781 6.20312 17.0156C6.11979 16.8281 6.00521 16.625 5.85938 16.4062C5.72396 16.1771 5.55208 15.9531 5.34375 15.7344C5.08333 15.474 4.82292 15.2656 4.5625 15.1094C4.3125 14.9531 4.08333 14.8333 3.875 14.75C4.3125 14.3125 4.90104 13.724 5.64062 12.9844C6.38021 12.2448 7.15104 11.4688 7.95312 10.6562C8.76562 9.84375 9.55208 9.05729 10.3125 8.29688C11.0729 7.53646 11.6979 6.91667 12.1875 6.4375ZM3.1875 15.5938C3.33333 15.625 3.53646 15.7083 3.79688 15.8438C4.05729 15.9688 4.33333 16.1771 4.625 16.4688C4.84375 16.6875 5.01042 16.9115 5.125 17.1406C5.23958 17.3698 5.32292 17.5625 5.375 17.7188C5.03125 17.8333 4.53646 18 3.89062 18.2188C3.24479 18.4375 2.67708 18.625 2.1875 18.7812C2.33333 18.3125 2.50521 17.7604 2.70312 17.125C2.91146 16.4896 3.07292 15.9792 3.1875 15.5938ZM15.375 7.90625C15.3646 7.91667 15.349 7.93229 15.3281 7.95312C15.3177 7.97396 15.3021 7.99479 15.2812 8.01562C15.2083 7.80729 15.099 7.57812 14.9531 7.32812C14.8073 7.07812 14.6146 6.83333 14.375 6.59375C14.125 6.34375 13.8802 6.14583 13.6406 6C13.401 5.84375 13.1823 5.72396 12.9844 5.64062C13.0052 5.61979 13.0208 5.60417 13.0312 5.59375C13.0417 5.58333 13.0521 5.57292 13.0625 5.5625C13.0833 5.53125 13.2083 5.43229 13.4375 5.26562C13.6771 5.09896 13.9583 5.01562 14.2812 5.01562C14.4688 5.01562 14.651 5.05729 14.8281 5.14062C15.0156 5.22396 15.1927 5.34896 15.3594 5.51562C15.5677 5.71354 15.724 5.91146 15.8281 6.10938C15.9427 6.30729 16 6.5 16 6.6875C16 6.875 15.9479 7.07292 15.8438 7.28125C15.7396 7.48958 15.5833 7.69792 15.375 7.90625Z" fill="#FFFFFF"/>
</svg>
